<mxfile host="app.diagrams.net" agent="Mozilla/5.0 (Windows NT 10.0; Win64; x64) AppleWebKit/537.36 (KHTML, like Gecko) Chrome/132.0.0.0 Safari/537.36" version="26.0.14">
  <diagram name="Page-1" id="BIyzB22RKXAYX_aXKyGG">
    <mxGraphModel dx="1970" dy="460" grid="1" gridSize="10" guides="1" tooltips="1" connect="1" arrows="1" fold="1" page="1" pageScale="1" pageWidth="850" pageHeight="1100" math="0" shadow="0">
      <root>
        <mxCell id="0" />
        <mxCell id="1" parent="0" />
        <mxCell id="W84uYJL-J9Y_gAg7uB06-7" value="Cell" style="swimlane;childLayout=stackLayout;horizontal=1;startSize=50;horizontalStack=0;rounded=1;fontSize=14;fontStyle=0;strokeWidth=2;resizeParent=0;resizeLast=1;shadow=0;dashed=0;align=center;arcSize=4;whiteSpace=wrap;html=1;" vertex="1" parent="1">
          <mxGeometry x="481" y="670" width="160" height="120" as="geometry" />
        </mxCell>
        <mxCell id="W84uYJL-J9Y_gAg7uB06-8" value="Jump jump&lt;br&gt;&lt;br&gt;initializeJump();" style="align=left;strokeColor=none;fillColor=none;spacingLeft=4;fontSize=12;verticalAlign=top;resizable=0;rotatable=0;part=1;html=1;" vertex="1" parent="W84uYJL-J9Y_gAg7uB06-7">
          <mxGeometry y="50" width="160" height="70" as="geometry" />
        </mxCell>
        <mxCell id="W84uYJL-J9Y_gAg7uB06-9" value="Jump" style="swimlane;childLayout=stackLayout;horizontal=1;startSize=50;horizontalStack=0;rounded=1;fontSize=14;fontStyle=0;strokeWidth=2;resizeParent=0;resizeLast=1;shadow=0;dashed=0;align=center;arcSize=4;whiteSpace=wrap;html=1;" vertex="1" parent="1">
          <mxGeometry x="740" y="810" width="160" height="120" as="geometry" />
        </mxCell>
        <mxCell id="W84uYJL-J9Y_gAg7uB06-10" value="int strt;&lt;div&gt;int end;&lt;/div&gt;" style="align=left;strokeColor=none;fillColor=none;spacingLeft=4;fontSize=12;verticalAlign=top;resizable=0;rotatable=0;part=1;html=1;" vertex="1" parent="W84uYJL-J9Y_gAg7uB06-9">
          <mxGeometry y="50" width="160" height="70" as="geometry" />
        </mxCell>
        <mxCell id="W84uYJL-J9Y_gAg7uB06-11" value="Player" style="swimlane;childLayout=stackLayout;horizontal=1;startSize=50;horizontalStack=0;rounded=1;fontSize=14;fontStyle=0;strokeWidth=2;resizeParent=0;resizeLast=1;shadow=0;dashed=0;align=center;arcSize=4;whiteSpace=wrap;html=1;" vertex="1" parent="1">
          <mxGeometry x="-20" y="370" width="160" height="120" as="geometry" />
        </mxCell>
        <mxCell id="W84uYJL-J9Y_gAg7uB06-16" value="int position;" style="text;html=1;align=center;verticalAlign=middle;resizable=0;points=[];autosize=1;strokeColor=none;fillColor=none;" vertex="1" parent="W84uYJL-J9Y_gAg7uB06-11">
          <mxGeometry y="50" width="160" height="70" as="geometry" />
        </mxCell>
        <mxCell id="W84uYJL-J9Y_gAg7uB06-15" value="" style="endArrow=diamondThin;endFill=1;endSize=24;html=1;rounded=0;entryX=0;entryY=0.342;entryDx=0;entryDy=0;entryPerimeter=0;exitX=1;exitY=0;exitDx=0;exitDy=0;" edge="1" parent="1" source="W84uYJL-J9Y_gAg7uB06-8" target="W84uYJL-J9Y_gAg7uB06-9">
          <mxGeometry width="160" relative="1" as="geometry">
            <mxPoint x="660" y="779.5" as="sourcePoint" />
            <mxPoint x="730" y="779.5" as="targetPoint" />
            <Array as="points">
              <mxPoint x="690" y="790" />
            </Array>
          </mxGeometry>
        </mxCell>
        <mxCell id="W84uYJL-J9Y_gAg7uB06-21" value="GAME" style="swimlane;fontStyle=0;childLayout=stackLayout;horizontal=1;startSize=26;fillColor=none;horizontalStack=0;resizeParent=1;resizeParentMax=0;resizeLast=0;collapsible=1;marginBottom=0;whiteSpace=wrap;html=1;" vertex="1" parent="1">
          <mxGeometry x="300" y="410" width="180" height="138" as="geometry" />
        </mxCell>
        <mxCell id="W84uYJL-J9Y_gAg7uB06-22" value="Board board;&lt;div&gt;Dice dice;&lt;/div&gt;&lt;div&gt;Dequeue&amp;lt;Players&amp;gt;&lt;/div&gt;" style="text;strokeColor=none;fillColor=none;align=left;verticalAlign=top;spacingLeft=4;spacingRight=4;overflow=hidden;rotatable=0;points=[[0,0.5],[1,0.5]];portConstraint=eastwest;whiteSpace=wrap;html=1;" vertex="1" parent="W84uYJL-J9Y_gAg7uB06-21">
          <mxGeometry y="26" width="180" height="64" as="geometry" />
        </mxCell>
        <mxCell id="W84uYJL-J9Y_gAg7uB06-23" value="startGame();" style="text;strokeColor=none;fillColor=none;align=left;verticalAlign=top;spacingLeft=4;spacingRight=4;overflow=hidden;rotatable=0;points=[[0,0.5],[1,0.5]];portConstraint=eastwest;whiteSpace=wrap;html=1;" vertex="1" parent="W84uYJL-J9Y_gAg7uB06-21">
          <mxGeometry y="90" width="180" height="48" as="geometry" />
        </mxCell>
        <mxCell id="W84uYJL-J9Y_gAg7uB06-38" value="" style="endArrow=diamondThin;endFill=1;endSize=24;html=1;rounded=0;entryX=-0.025;entryY=0.45;entryDx=0;entryDy=0;entryPerimeter=0;exitX=1.005;exitY=0.134;exitDx=0;exitDy=0;exitPerimeter=0;" edge="1" parent="1" source="W84uYJL-J9Y_gAg7uB06-47" target="W84uYJL-J9Y_gAg7uB06-7">
          <mxGeometry width="160" relative="1" as="geometry">
            <mxPoint x="440" y="610" as="sourcePoint" />
            <mxPoint x="600" y="610" as="targetPoint" />
            <Array as="points">
              <mxPoint x="390" y="673" />
            </Array>
          </mxGeometry>
        </mxCell>
        <mxCell id="W84uYJL-J9Y_gAg7uB06-39" value="Dice" style="swimlane;fontStyle=1;align=center;verticalAlign=top;childLayout=stackLayout;horizontal=1;startSize=26;horizontalStack=0;resizeParent=1;resizeParentMax=0;resizeLast=0;collapsible=1;marginBottom=0;whiteSpace=wrap;html=1;" vertex="1" parent="1">
          <mxGeometry x="640" y="470" width="110" height="88" as="geometry" />
        </mxCell>
        <mxCell id="W84uYJL-J9Y_gAg7uB06-40" value="roleDice(): int" style="text;strokeColor=none;fillColor=none;align=left;verticalAlign=top;spacingLeft=4;spacingRight=4;overflow=hidden;rotatable=0;points=[[0,0.5],[1,0.5]];portConstraint=eastwest;whiteSpace=wrap;html=1;" vertex="1" parent="W84uYJL-J9Y_gAg7uB06-39">
          <mxGeometry y="26" width="110" height="54" as="geometry" />
        </mxCell>
        <mxCell id="W84uYJL-J9Y_gAg7uB06-41" value="" style="line;strokeWidth=1;fillColor=none;align=left;verticalAlign=middle;spacingTop=-1;spacingLeft=3;spacingRight=3;rotatable=0;labelPosition=right;points=[];portConstraint=eastwest;strokeColor=inherit;" vertex="1" parent="W84uYJL-J9Y_gAg7uB06-39">
          <mxGeometry y="80" width="110" height="8" as="geometry" />
        </mxCell>
        <mxCell id="W84uYJL-J9Y_gAg7uB06-43" value="" style="endArrow=diamondThin;endFill=1;endSize=24;html=1;rounded=0;entryX=0.018;entryY=0;entryDx=0;entryDy=0;entryPerimeter=0;exitX=1;exitY=0.5;exitDx=0;exitDy=0;" edge="1" parent="1" source="W84uYJL-J9Y_gAg7uB06-22">
          <mxGeometry width="160" relative="1" as="geometry">
            <mxPoint x="440" y="599" as="sourcePoint" />
            <mxPoint x="641.98" y="530" as="targetPoint" />
          </mxGeometry>
        </mxCell>
        <mxCell id="W84uYJL-J9Y_gAg7uB06-44" value="Board" style="swimlane;fontStyle=0;childLayout=stackLayout;horizontal=1;startSize=26;fillColor=none;horizontalStack=0;resizeParent=1;resizeParentMax=0;resizeLast=0;collapsible=1;marginBottom=0;whiteSpace=wrap;html=1;" vertex="1" parent="1">
          <mxGeometry x="80" y="610" width="200" height="134" as="geometry" />
        </mxCell>
        <mxCell id="W84uYJL-J9Y_gAg7uB06-45" value="Cell[][] cell;" style="text;strokeColor=none;fillColor=none;align=left;verticalAlign=top;spacingLeft=4;spacingRight=4;overflow=hidden;rotatable=0;points=[[0,0.5],[1,0.5]];portConstraint=eastwest;whiteSpace=wrap;html=1;" vertex="1" parent="W84uYJL-J9Y_gAg7uB06-44">
          <mxGeometry y="26" width="200" height="26" as="geometry" />
        </mxCell>
        <mxCell id="W84uYJL-J9Y_gAg7uB06-47" value="deque&amp;lt;Players&amp;gt; players;&lt;div&gt;initializeBoard(){&lt;br&gt;&lt;span style=&quot;white-space: pre;&quot;&gt;&#x9;&lt;/span&gt;initialize cell;&lt;br&gt;&lt;span style=&quot;white-space: pre;&quot;&gt;&#x9;&lt;/span&gt;initializePlaeyr();&lt;br&gt;}&lt;/div&gt;" style="text;strokeColor=none;fillColor=none;align=left;verticalAlign=top;spacingLeft=4;spacingRight=4;overflow=hidden;rotatable=0;points=[[0,0.5],[1,0.5]];portConstraint=eastwest;whiteSpace=wrap;html=1;" vertex="1" parent="W84uYJL-J9Y_gAg7uB06-44">
          <mxGeometry y="52" width="200" height="82" as="geometry" />
        </mxCell>
        <mxCell id="W84uYJL-J9Y_gAg7uB06-26" value="" style="endArrow=diamondThin;endFill=1;endSize=24;html=1;rounded=0;entryX=1;entryY=0.243;entryDx=0;entryDy=0;entryPerimeter=0;exitX=0.028;exitY=0;exitDx=0;exitDy=0;exitPerimeter=0;" edge="1" parent="1" source="W84uYJL-J9Y_gAg7uB06-22" target="W84uYJL-J9Y_gAg7uB06-16">
          <mxGeometry width="160" relative="1" as="geometry">
            <mxPoint x="290" y="440" as="sourcePoint" />
            <mxPoint x="460" y="460" as="targetPoint" />
          </mxGeometry>
        </mxCell>
        <mxCell id="W84uYJL-J9Y_gAg7uB06-48" value="" style="endArrow=diamondThin;endFill=1;endSize=24;html=1;rounded=0;exitX=0;exitY=0.5;exitDx=0;exitDy=0;entryX=0.59;entryY=-0.03;entryDx=0;entryDy=0;entryPerimeter=0;" edge="1" parent="1" source="W84uYJL-J9Y_gAg7uB06-22" target="W84uYJL-J9Y_gAg7uB06-44">
          <mxGeometry width="160" relative="1" as="geometry">
            <mxPoint x="280" y="470" as="sourcePoint" />
            <mxPoint x="260" y="550" as="targetPoint" />
            <Array as="points">
              <mxPoint x="200" y="470" />
            </Array>
          </mxGeometry>
        </mxCell>
      </root>
    </mxGraphModel>
  </diagram>
</mxfile>
